<svg width="62" height="25" viewBox="0 0 62 25" fill="none" xmlns="http://www.w3.org/2000/svg">
<rect x="36.7766" width="25" height="25" rx="3" fill="#24D366"/>
<path d="M27.3374 24.0209C25.6104 24.0209 24.119 23.6621 22.863 22.9444C21.6145 22.2192 20.6538 21.195 19.9809 19.8717C19.3081 18.541 18.9717 16.9747 18.9717 15.173C18.9717 13.4012 19.3081 11.8461 19.9809 10.5079C20.6613 9.16223 21.6107 8.11558 22.8293 7.36798C24.0479 6.61289 25.4796 6.23535 27.1243 6.23535C28.1859 6.23535 29.1877 6.4073 30.1297 6.7512C31.0792 7.08762 31.9165 7.61095 32.6417 8.32118C33.3743 9.0314 33.95 9.93601 34.3687 11.035C34.7873 12.1265 34.9967 13.4273 34.9967 14.9375V16.1823H20.8781V13.446H31.1054C31.0979 12.6685 30.9297 11.977 30.6007 11.3714C30.2718 10.7584 29.812 10.2762 29.2214 9.9248C28.6382 9.57342 27.9579 9.39773 27.1804 9.39773C26.3506 9.39773 25.6216 9.59959 24.9937 10.0033C24.3657 10.3995 23.876 10.9229 23.5246 11.5733C23.1807 12.2162 23.005 12.9227 22.9975 13.6927V16.0813C22.9975 17.0831 23.1807 17.9429 23.547 18.6606C23.9134 19.3708 24.4255 19.9166 25.0834 20.2979C25.7413 20.6717 26.5113 20.8586 27.3935 20.8586C27.9841 20.8586 28.5186 20.7763 28.9971 20.6118C29.4756 20.4399 29.8905 20.1894 30.2419 19.8605C30.5932 19.5316 30.8586 19.1241 31.0381 18.6382L34.8284 19.0643C34.5892 20.0661 34.1332 20.9408 33.4603 21.6884C32.7949 22.4285 31.9427 23.0042 30.9035 23.4154C29.8643 23.8191 28.6756 24.0209 27.3374 24.0209Z" fill="#24D366"/>
<path d="M0 23.6843V0.717773H4.05951V9.30779H4.22772C4.43705 8.88913 4.73236 8.4443 5.11364 7.97331C5.49492 7.49484 6.01077 7.08739 6.66118 6.75097C7.3116 6.40707 8.14145 6.23512 9.15072 6.23512C10.4815 6.23512 11.6814 6.57528 12.7504 7.2556C13.827 7.92845 14.6793 8.92651 15.3073 10.2498C15.9427 11.5656 16.2605 13.1804 16.2605 15.0943C16.2605 16.9857 15.9502 18.5931 15.3297 19.9163C14.7092 21.2396 13.8644 22.2489 12.7953 22.9441C11.7262 23.6394 10.5151 23.9871 9.16193 23.9871C8.17509 23.9871 7.35646 23.8226 6.70604 23.4936C6.05562 23.1647 5.5323 22.7685 5.13606 22.3049C4.74731 21.834 4.44453 21.3891 4.22772 20.9705H3.99222V23.6843H0ZM3.98101 15.0718C3.98101 16.1858 4.13801 17.1614 4.452 17.9987C4.77348 18.836 5.23325 19.4902 5.83134 19.9612C6.4369 20.4247 7.16956 20.6565 8.02931 20.6565C8.92644 20.6565 9.67778 20.4172 10.2833 19.9388C10.8889 19.4528 11.3449 18.7912 11.6515 17.9539C11.9655 17.1091 12.1225 16.1484 12.1225 15.0718C12.1225 14.0028 11.9692 13.0533 11.6627 12.2235C11.3562 11.3936 10.9001 10.7432 10.2946 10.2722C9.689 9.80121 8.93391 9.56571 8.02931 9.56571C7.16208 9.56571 6.42569 9.79373 5.82013 10.2498C5.21456 10.7058 4.75478 11.345 4.44079 12.1674C4.13427 12.9898 3.98101 13.9579 3.98101 15.0718Z" fill="#24D366"/>
<path fill-rule="evenodd" clip-rule="evenodd" d="M43.5032 4.60602C43.7825 4.25617 44.2415 3.94727 44.8541 3.94727C46.1653 3.94727 46.9867 4.87925 47.4037 5.59379C47.8381 6.33821 48.0745 7.22352 48.1066 7.91441C48.2363 10.7024 47.4142 13.4812 46.6692 15.8494C46.8879 16.3623 47.13 16.8512 47.3952 17.2987C47.6257 17.6876 47.6648 17.7444 47.7033 17.7896C47.748 17.8419 47.802 17.8907 48.1591 18.1968C48.1871 18.2208 48.2537 18.2695 48.3576 18.3255C48.4582 18.3798 48.5684 18.4273 48.6722 18.4606C48.7389 18.4821 48.7908 18.4937 48.8267 18.4997L48.8604 18.4885C49.4313 18.2982 50.1455 17.7611 50.8385 16.9375C50.6616 16.3437 50.5109 15.7243 50.3775 15.176C50.3158 14.9224 50.2578 14.6839 50.2026 14.4703C49.6961 12.5093 49.2512 9.90928 50.1243 7.58087C50.2547 7.23325 50.4838 6.68686 50.8011 6.17397C51.0755 5.73061 51.5987 5.00247 52.4264 4.72658C52.9223 4.56126 53.3647 4.69735 53.645 4.86498C53.8946 5.01427 54.0572 5.20687 54.1465 5.32537C54.3297 5.56872 54.4588 5.84924 54.5396 6.04202C54.7007 6.42598 54.8507 6.92918 54.8426 6.90556C55.6446 9.25222 55.7904 11.8463 55.1655 14.285C54.9023 15.312 54.4078 16.3859 53.7832 17.363C53.9573 17.7572 54.1512 18.0955 54.3731 18.3716C55.2388 19.449 56.477 19.9148 58.1923 20.4564C58.8853 20.6753 59.2697 21.4144 59.0508 22.1074C58.832 22.8003 58.0929 23.1847 57.3999 22.9659C55.7451 22.4433 53.748 21.7949 52.3218 20.02C52.2 19.8685 52.0865 19.7113 51.9806 19.5501C51.3179 20.1645 50.5708 20.6749 49.7731 20.9573C49.0537 21.2766 48.2844 21.1 47.8681 20.9664C47.3547 20.8016 46.8277 20.5215 46.4465 20.1949C46.4187 20.171 46.391 20.1474 46.3636 20.124C46.1196 19.9156 45.8927 19.7218 45.7017 19.498C45.6323 19.4166 45.5683 19.3324 45.5074 19.2452C45.4588 19.3786 45.3948 19.4966 45.3685 19.545L45.3677 19.5466C45.3258 19.6238 45.277 19.7079 45.2296 19.788C45.1777 19.8758 45.1113 19.9856 45.0459 20.094C44.9999 20.17 44.9544 20.2453 44.9146 20.3118C44.8059 20.4935 44.715 20.65 44.6537 20.7672C44.6455 20.7828 44.6384 20.7966 44.6324 20.8086C44.49 21.3814 43.9723 21.8058 43.3555 21.8058C42.6288 21.8058 42.0397 21.2167 42.0397 20.49C42.0397 20.1879 42.1429 19.936 42.1704 19.8689C42.1714 19.8666 42.1723 19.8644 42.1731 19.8625C42.219 19.7497 42.2739 19.639 42.3225 19.5461C42.4213 19.3576 42.5455 19.146 42.6565 18.9605C42.7116 18.8685 42.7608 18.787 42.8066 18.7114C42.8633 18.6176 42.9145 18.5329 42.9646 18.4482C43.0025 18.3842 43.03 18.3364 43.0486 18.3026C43.1944 17.8727 43.3382 17.4649 43.479 17.0655C43.6136 16.6836 43.7454 16.3095 43.8738 15.9312C43.5349 15.0008 43.2679 14.0561 43.066 13.1679C42.7954 11.9772 42.7989 10.7657 42.8018 9.73008C42.8021 9.62427 42.8024 9.52029 42.8024 9.41836C42.8024 9.29581 42.8018 9.1692 42.8012 9.0392C42.7972 8.25726 42.7927 7.35252 42.9221 6.46743C42.9222 6.46641 42.9227 6.46136 42.9236 6.45274C42.933 6.35833 42.9852 5.83518 43.0841 5.47143C43.1443 5.24968 43.2594 4.91135 43.5032 4.60602ZM45.4339 9.63506C45.4848 9.09747 45.5024 8.56444 45.4779 8.03668C45.4744 7.96285 45.4634 7.87495 45.445 7.77868C45.4299 8.16229 45.4314 8.56208 45.433 8.99434C45.4335 9.1322 45.434 9.27337 45.434 9.41836C45.434 9.49138 45.4339 9.5636 45.4339 9.63506ZM45.6349 6.12578C45.635 6.12589 45.6341 6.1285 45.632 6.13328C45.6338 6.12805 45.6349 6.12567 45.6349 6.12578ZM44.8353 6.57754C44.831 6.57684 44.8289 6.57607 44.8289 6.57587C44.829 6.57566 44.8311 6.57601 44.8353 6.57754ZM43.0686 18.2648C43.0687 18.2646 43.0674 18.2674 43.0643 18.2734C43.0669 18.2679 43.0685 18.2649 43.0686 18.2648ZM52.5821 8.52176C53.0007 10.135 53.0392 11.844 52.6606 13.4516C52.2368 11.6891 52.0584 9.93599 52.5821 8.52176ZM53.3286 7.19141C53.3286 7.19143 53.3282 7.19172 53.3274 7.19225L53.3286 7.19141ZM48.8818 18.5055C48.8819 18.5055 48.8801 18.5056 48.8764 18.5055C48.8799 18.5053 48.8818 18.5054 48.8818 18.5055Z" fill="#F7F7F7"/>
</svg>
